<?xml version="1.0" encoding="UTF-8" standalone="no"?>
<!-- Created with Inkscape (http://www.inkscape.org/) -->

<svg
   xmlns:dc="http://purl.org/dc/elements/1.1/"
   xmlns:cc="http://creativecommons.org/ns#"
   xmlns:rdf="http://www.w3.org/1999/02/22-rdf-syntax-ns#"
   xmlns:svg="http://www.w3.org/2000/svg"
   xmlns="http://www.w3.org/2000/svg"
   xmlns:sodipodi="http://sodipodi.sourceforge.net/DTD/sodipodi-0.dtd"
   xmlns:inkscape="http://www.inkscape.org/namespaces/inkscape"
   width="618.13763"
   height="509.77646"
   id="svg2"
   version="1.1"
   inkscape:version="0.47 r22583"
   sodipodi:docname="dawg.svg">
  <defs
     id="defs4">
    <inkscape:perspective
       sodipodi:type="inkscape:persp3d"
       inkscape:vp_x="0 : 526.18109 : 1"
       inkscape:vp_y="0 : 1000 : 0"
       inkscape:vp_z="744.09448 : 526.18109 : 1"
       inkscape:persp3d-origin="372.04724 : 350.78739 : 1"
       id="perspective10" />
  </defs>
  <sodipodi:namedview
     id="base"
     pagecolor="#ffffff"
     bordercolor="#666666"
     borderopacity="1.0"
     inkscape:pageopacity="0.0"
     inkscape:pageshadow="2"
     inkscape:zoom="0.49497475"
     inkscape:cx="571.20744"
     inkscape:cy="62.049403"
     inkscape:document-units="px"
     inkscape:current-layer="layer1"
     showgrid="false"
     inkscape:window-width="1680"
     inkscape:window-height="1024"
     inkscape:window-x="24"
     inkscape:window-y="32"
     inkscape:window-maximized="0" />
  <metadata
     id="metadata7">
    <rdf:RDF>
      <cc:Work
         rdf:about="">
        <dc:format>image/svg+xml</dc:format>
        <dc:type
           rdf:resource="http://purl.org/dc/dcmitype/StillImage" />
        <dc:title />
      </cc:Work>
    </rdf:RDF>
  </metadata>
  <g
     inkscape:label="Layer 1"
     inkscape:groupmode="layer"
     id="layer1"
     transform="translate(218.97535,-4.2901821)">
    <path
       id="path2846"
       d="m 120.13835,369.38444 c 0,0 -15.19997,78.33834 -7.01537,94.70755 8.1846,16.3692 73.66142,36.24609 68.98451,15.19997 -4.67692,-21.04612 -43.26147,-24.55381 -39.75379,-47.93838 3.50769,-23.38458 -4.67691,-50.27685 -4.67691,-50.27685 l -17.53844,-11.69229 z"
       style="fill:#2b1100;fill-opacity:1;stroke:#000000;stroke-width:5.64410161999999982;stroke-miterlimit:4;stroke-opacity:1;stroke-dasharray:none" />
    <path
       style="fill:#2b1100;fill-opacity:1;stroke:#000000;stroke-width:5.64410161999999982;stroke-miterlimit:4;stroke-opacity:1;stroke-dasharray:none"
       d="m -67.004503,372.24158 c 0,0 -15.199976,78.33834 -7.015373,94.70755 8.184602,16.3692 73.66142072,36.24609 68.9845057,15.19997 -4.676916,-21.04612 -43.2614697,-24.55381 -39.7537827,-47.93838 3.507686,-23.38458 -4.676916,-50.27685 -4.676916,-50.27685 l -17.538434,-11.69229 z"
       id="path2839" />
    <path
       style="fill:#803300;fill-opacity:1;stroke:#000000;stroke-width:6.89599990999999868;stroke-miterlimit:4;stroke-opacity:1;stroke-dasharray:none"
       d="m -121.25,130.96875 c -45.49443,0.22962 -108.02233,5.53125 -91.59375,27.09375 22.85714,30 91.41518,-5.70089 92.84375,17.15625 1.42857,22.85714 1.4375,67.15625 1.4375,67.15625 -1.69878,22.55372 -2.48879,78.07063 24.8125,120.5 -3.549462,19.38125 -16.36359,93.55406 -7.6875,110.90625 10.000004,20 89.995535,44.30804 84.28125,18.59375 -5.714286,-25.71428 -52.848214,-30.02233 -48.5625,-58.59375 2.172519,-14.48346 0.662173,-30.02729 -1.34375,-41.875 23.641174,17.90216 57.6863234,28.43379 106.59375,24.09375 12.41073,-1.10133 24.341731,-2.62937 35.84375,-4.53125 -3.691925,27.47728 -6.356155,58.94394 -1.09375,69.46875 10.000004,20 89.99553,44.27679 84.28125,18.5625 -5.71429,-25.71428 -52.84822,-29.99108 -48.5625,-58.5625 1.85436,-12.36241 1.02739,-25.5104 -0.5,-36.46875 C 247.28045,370.64554 309.5625,285.0625 309.5625,285.0625 l -205.84375,-64.5 -183.6875,9.5625 c 4.832321,-22.2239 19.12686,-95.32699 -1.46875,-97.75 -6.830358,-0.80357 -22.01033,-1.4961 -39.8125,-1.40625 z"
       id="path2836" />
    <path
       sodipodi:type="arc"
       style="fill:#aa4400;fill-opacity:1;stroke:#000000;stroke-width:6.89599990999999868;stroke-miterlimit:4;stroke-opacity:1;stroke-dasharray:none"
       id="path2816"
       sodipodi:cx="203.57143"
       sodipodi:cy="227.36218"
       sodipodi:rx="149.28572"
       sodipodi:ry="159.28572"
       d="m 352.85715,227.36218 c 0,87.97108 -66.8375,159.28572 -149.28572,159.28572 -82.44823,0 -149.285724,-71.31464 -149.285724,-159.28572 0,-87.97107 66.837494,-159.285718 149.285724,-159.285718 82.44822,0 149.28572,71.314648 149.28572,159.285718 z" />
    <path
       sodipodi:type="arc"
       style="fill:#ffffff;fill-opacity:1;stroke:#000000;stroke-width:6.89599991;stroke-miterlimit:4;stroke-opacity:1;stroke-dasharray:none"
       id="path2818"
       sodipodi:cx="125"
       sodipodi:cy="186.6479"
       sodipodi:rx="63.57143"
       sodipodi:ry="78.571426"
       d="m 188.57143,186.6479 c 0,43.3938 -28.4619,78.57143 -63.57143,78.57143 -35.109531,0 -63.57143,-35.17763 -63.57143,-78.57143 0,-43.3938 28.461899,-78.57142 63.57143,-78.57142 35.10953,0 63.57143,35.17762 63.57143,78.57142 z" />
    <path
       sodipodi:type="arc"
       style="fill:#ffffff;fill-opacity:1;stroke:#000000;stroke-width:6.89599991;stroke-miterlimit:4;stroke-opacity:1;stroke-dasharray:none"
       id="path2820"
       sodipodi:cx="328.57144"
       sodipodi:cy="173.79076"
       sodipodi:rx="67.14286"
       sodipodi:ry="90"
       d="m 395.7143,173.79076 c 0,49.70562 -30.06088,90 -67.14286,90 -37.08198,0 -67.14286,-40.29438 -67.14286,-90 0,-49.70563 30.06088,-90.000004 67.14286,-90.000004 37.08198,0 67.14286,40.294374 67.14286,90.000004 z" />
    <path
       sodipodi:type="arc"
       style="fill:#000000;fill-opacity:1;stroke:#000000;stroke-width:6.89599990999999957;stroke-miterlimit:4;stroke-opacity:1;stroke-dasharray:none"
       id="path2826"
       sodipodi:cx="121.42857"
       sodipodi:cy="171.6479"
       sodipodi:rx="10"
       sodipodi:ry="12.142858"
       d="m 131.42857,171.6479 c 0,6.70632 -4.47715,12.14286 -10,12.14286 -5.52284,0 -10,-5.43654 -10,-12.14286 0,-6.70631 4.47716,-12.14285 10,-12.14285 5.52285,0 10,5.43654 10,12.14285 z" />
    <path
       sodipodi:type="arc"
       style="fill:#000000;fill-opacity:1;stroke:#000000;stroke-width:6.89599990999999957;stroke-miterlimit:4;stroke-opacity:1;stroke-dasharray:none"
       id="path2828"
       sodipodi:cx="338.57144"
       sodipodi:cy="151.6479"
       sodipodi:rx="10"
       sodipodi:ry="16.428572"
       d="m 348.57144,151.6479 c 0,9.07325 -4.47715,16.42858 -10,16.42858 -5.52285,0 -10,-7.35533 -10,-16.42858 0,-9.07325 4.47715,-16.42857 10,-16.42857 5.52285,0 10,7.35532 10,16.42857 z" />
    <path
       style="fill:#2b1100;fill-opacity:1;stroke:#000000;stroke-width:6.89599990999999957;stroke-miterlimit:4;stroke-opacity:1;stroke-dasharray:none"
       d="m 88.571429,113.79075 c 0,0 -18.571429,-59.999996 -47.142858,-52.857139 -28.571428,7.142857 -38.5714281,14.285714 -38.5714281,14.285714 0,0 55.7142861,49.999995 58.5714281,64.285715 2.857143,14.28571 27.142858,-24.28572 27.142858,-25.71429 z"
       id="path2830" />
    <path
       style="fill:#2b1100;fill-opacity:1;stroke:#000000;stroke-width:6.89599990999999957;stroke-miterlimit:4;stroke-opacity:1;stroke-dasharray:none"
       d="m 242.85714,70.933611 c 0,0 10,-68.5714289 27.14286,-62.8571432 17.14286,5.7142852 24.28571,4.2857142 24.28571,4.2857142 0,0 -22.85714,60 -32.85714,64.285714 -10,4.285715 -18.57143,-4.285714 -18.57143,-5.714285 z"
       id="path2832" />
    <path
       style="fill:#c7f8f5;fill-opacity:1;stroke:none"
       d="m 126.41304,113.77679 c -35.109527,0 -63.562497,32.00023 -63.562497,71.44947 0,39.44924 28.45297,71.42106 63.562497,71.42106 2.37776,0 4.72125,-0.16881 7.03125,-0.45454 -31.8138,-3.91781 -56.593747,-34.17714 -56.593747,-70.96652 0,-36.78938 24.779947,-67.07712 56.593747,-70.99493 -2.31,-0.28573 -4.65349,-0.45454 -7.03125,-0.45454 z"
       id="path3598" />
    <path
       id="path3603"
       d="m 328.41304,87.205361 c -35.10953,0 -63.5625,38.399679 -63.5625,85.738029 0,47.33835 28.45297,85.70393 63.5625,85.70393 2.37776,0 4.72125,-0.20257 7.03125,-0.54544 -31.8138,-4.7013 -56.59375,-41.01193 -56.59375,-85.15849 0,-44.14657 24.77995,-80.491291 56.59375,-85.192589 -2.31,-0.342871 -4.65349,-0.54544 -7.03125,-0.54544 z"
       style="fill:#c7f8f5;fill-opacity:1;stroke:none" />
    <path
       sodipodi:type="arc"
       style="opacity:0.27272728;color:#000000;fill:#ffffff;fill-opacity:1;fill-rule:nonzero;stroke:none;stroke-width:4;marker:none;visibility:visible;display:inline;overflow:visible;enable-background:accumulate"
       id="path3607"
       sodipodi:cx="-95.714287"
       sodipodi:cy="-13.080684"
       sodipodi:rx="50"
       sodipodi:ry="50"
       d="m -45.714287,-13.080684 a 50,50 0 1 1 -100.000003,0 50,50 0 1 1 100.000003,0 z"
       transform="matrix(0.45714286,0,0,0.45714286,183.35119,157.18924)" />
    <path
       transform="matrix(0.45714286,0,0,0.45714286,400.77976,143.18924)"
       d="m -45.714287,-13.080684 a 50,50 0 1 1 -100.000003,0 50,50 0 1 1 100.000003,0 z"
       sodipodi:ry="50"
       sodipodi:rx="50"
       sodipodi:cy="-13.080684"
       sodipodi:cx="-95.714287"
       id="path3609"
       style="opacity:0.27272728;color:#000000;fill:#ffffff;fill-opacity:1;fill-rule:nonzero;stroke:none;stroke-width:4;marker:none;visibility:visible;display:inline;overflow:visible;enable-background:accumulate"
       sodipodi:type="arc" />
    <path
       d="m 352.85715,227.36218 a 149.28572,159.28572 0 1 1 -298.571444,0 149.28572,159.28572 0 1 1 298.571444,0 z"
       sodipodi:ry="159.28572"
       sodipodi:rx="149.28572"
       sodipodi:cy="227.36218"
       sodipodi:cx="203.57143"
       id="path3866"
       style="fill:#c87137;fill-opacity:1;stroke:#000000;stroke-width:6.89599991;stroke-miterlimit:4;stroke-opacity:1;stroke-dasharray:none"
       sodipodi:type="arc"
       transform="matrix(0.4246199,0,0,0.42269183,154.50658,194.89767)" />
    <path
       sodipodi:type="arc"
       style="fill:#ff5555;fill-opacity:1;stroke:#000000;stroke-width:6.89599991;stroke-miterlimit:4;stroke-opacity:1;stroke-dasharray:none"
       id="path2822"
       sodipodi:cx="220"
       sodipodi:cy="270.21933"
       sodipodi:rx="25.714285"
       sodipodi:ry="6.4285712"
       d="m 245.71428,270.21933 a 25.714285,6.4285712 0 1 1 -51.42856,0 25.714285,6.4285712 0 1 1 51.42856,0 z"
       transform="matrix(0.95999971,0,0,1.7558479,33.043724,-224.27444)" />
    <path
       style="fill:none;stroke:#000000;stroke-width:0.87769479px;stroke-linecap:butt;stroke-linejoin:miter;stroke-opacity:1"
       d="m 243.61337,259.44705 c 0,0 18.43234,50.14686 -12.08619,60.73935"
       id="path3968"
       sodipodi:nodetypes="cc" />
    <path
       sodipodi:nodetypes="cc"
       id="path3970"
       d="m 253.04412,259.44705 c 0,0 -18.43234,50.14686 12.08619,60.73935"
       style="fill:none;stroke:#000000;stroke-width:0.87769479px;stroke-linecap:butt;stroke-linejoin:miter;stroke-opacity:1" />
  </g>
</svg>
